<svg width="7" height="6" viewBox="0 0 7 6" fill="none" xmlns="http://www.w3.org/2000/svg">
<path d="M3.2118 5.8272C3.24391 5.88049 3.28688 5.92407 3.337 5.95417C3.38713 5.98427 3.4429 6 3.49953 6C3.55615 6 3.61192 5.98427 3.66205 5.95417C3.71217 5.92407 3.75514 5.88049 3.78725 5.8272L6.9375 0.627557C6.97396 0.567584 6.99534 0.497339 6.99932 0.424453C7.0033 0.351568 6.98972 0.27883 6.96007 0.214143C6.93041 0.149456 6.8858 0.0952928 6.8311 0.0575393C6.77639 0.0197859 6.71368 -0.00011453 6.64977 4.95827e-07H0.349279C0.285519 0.000301439 0.223037 0.0204577 0.168553 0.0583016C0.114069 0.0961456 0.069643 0.150245 0.0400537 0.214783C0.0104645 0.279321 -0.00316886 0.351854 0.000619828 0.424584C0.00440851 0.497313 0.0254759 0.567486 0.0615563 0.627557L3.2118 5.8272Z" fill="#F4F4F4"/>
</svg>
