<svg width="14" height="14" viewBox="0 0 14 14" fill="none" xmlns="http://www.w3.org/2000/svg">
<path d="M13.8638 5.62905H13.3V5.6H7V8.4H10.956C10.3789 10.0299 8.82805 11.2 7 11.2C4.68055 11.2 2.8 9.31945 2.8 7C2.8 4.68055 4.68055 2.8 7 2.8C8.07065 2.8 9.0447 3.2039 9.78635 3.86365L11.7663 1.8837C10.5161 0.71855 8.8438 0 7 0C3.13425 0 0 3.13425 0 7C0 10.8657 3.13425 14 7 14C10.8657 14 14 10.8657 14 7C14 6.53065 13.9517 6.0725 13.8638 5.62905Z" fill="#FFC107"/>
<path d="M0.807129 3.74185L3.10698 5.4285C3.72928 3.8878 5.23638 2.8 7.00003 2.8C8.07068 2.8 9.04473 3.2039 9.78638 3.86365L11.7663 1.8837C10.5161 0.71855 8.84383 0 7.00003 0C4.31133 0 1.97963 1.51795 0.807129 3.74185Z" fill="#FF3D00"/>
<path d="M7.00006 14C8.80816 14 10.4511 13.308 11.6932 12.1828L9.52671 10.3495C8.8003 10.9019 7.91267 11.2007 7.00006 11.2C5.17936 11.2 3.63341 10.039 3.05101 8.4189L0.768311 10.1776C1.92681 12.4446 4.27951 14 7.00006 14Z" fill="#4CAF50"/>
<path d="M13.8638 5.62906H13.3V5.60001H7V8.40001H10.9561C10.68 9.17575 10.1827 9.85362 9.5256 10.3499L9.52665 10.3492L11.6931 12.1825C11.5398 12.3218 14 10.5 14 7.00001C14 6.53066 13.9517 6.07251 13.8638 5.62906Z" fill="#1976D2"/>
</svg>
