<svg width="15" height="14" viewBox="0 0 15 14" fill="none" xmlns="http://www.w3.org/2000/svg">
<path d="M14.5205 6.8853L7.78364 0.153321C7.73514 0.104718 7.67752 0.0661594 7.61409 0.0398506C7.55067 0.0135419 7.48267 0 7.41401 0C7.34534 0 7.27735 0.0135419 7.21392 0.0398506C7.15049 0.0661594 7.09288 0.104718 7.04437 0.153321L0.307486 6.8853C0.111218 7.08157 0 7.34816 0 7.62621C0 8.20356 0.469407 8.67297 1.04676 8.67297H1.7566V13.4766C1.7566 13.7661 1.99048 14 2.27998 14H6.36725V10.3363H8.19908V14H12.548C12.8375 14 13.0714 13.7661 13.0714 13.4766V8.67297H13.7813C14.0593 8.67297 14.3259 8.56339 14.5222 8.36548C14.9294 7.95659 14.9294 7.29419 14.5205 6.8853Z" fill="#F4F4F4"/>
</svg>
