<svg width="10" height="10" viewBox="0 0 10 10" fill="none" xmlns="http://www.w3.org/2000/svg">
<path d="M1 10H1.5V3.15789H1C0.734784 3.15789 0.48043 3.2688 0.292893 3.4662C0.105357 3.66361 0 3.93135 0 4.21053V8.94737C0 9.22654 0.105357 9.49428 0.292893 9.69169C0.48043 9.8891 0.734784 10 1 10ZM9 3.15789H5.5L6.061 1.38526C6.11106 1.22706 6.12469 1.0586 6.10079 0.893766C6.07688 0.728929 6.01611 0.572428 5.92349 0.437155C5.83087 0.301882 5.70904 0.191706 5.56804 0.115703C5.42704 0.0396997 5.27091 4.32173e-05 5.1125 0H5L2.5 2.86211V10H8L9.956 5.47579L10 5.26316V4.21053C10 3.93135 9.89464 3.66361 9.70711 3.4662C9.51957 3.2688 9.26522 3.15789 9 3.15789Z" fill="#F4F4F4"/>
</svg>
