<svg width="31" height="32" viewBox="0 0 31 32" fill="none" xmlns="http://www.w3.org/2000/svg">
<path d="M23.0114 24.6092H22.7913C22.7913 21.4187 21.5151 21.4187 20.1509 21.4187C18.7426 21.4187 17.2903 21.4187 17.2903 18.0081H17.5104C17.5104 21.1986 18.7866 21.1986 20.1509 21.1986C21.5591 21.1986 23.0114 21.1986 23.0114 24.6092Z" fill="#F4F4F4"/>
<path d="M29.3925 30.5503C29.3925 30.9244 29.1065 31.2104 28.7764 31.2104H16.8063C16.4762 31.2104 16.1902 30.9244 16.1902 30.5503V25.2694C16.1902 24.8953 16.4762 24.6093 16.8063 24.6093H28.7764C29.1285 24.6093 29.3925 24.8953 29.3925 25.2694V30.5503Z" fill="#929292"/>
<path d="M17.5104 26.5896C17.5104 26.6996 17.4224 26.8097 17.2904 26.8097H16.8503C16.7183 26.8097 16.6302 26.7216 16.6302 26.5896V26.1495C16.6302 26.0175 16.7183 25.9295 16.8503 25.9295H17.2904C17.4224 25.9295 17.5104 26.0175 17.5104 26.1495V26.5896ZM18.8306 26.5896C18.8306 26.6996 18.7426 26.8097 18.6106 26.8097H18.1705C18.0385 26.8097 17.9505 26.7216 17.9505 26.5896V26.1495C17.9505 26.0175 18.0385 25.9295 18.1705 25.9295H18.6106C18.7426 25.9295 18.8306 26.0175 18.8306 26.1495V26.5896ZM20.1509 26.5896C20.1509 26.6996 20.0629 26.8097 19.9308 26.8097H19.4908C19.3587 26.8097 19.2707 26.7216 19.2707 26.5896V26.1495C19.2707 26.0175 19.3587 25.9295 19.4908 25.9295H19.9308C20.0629 25.9295 20.1509 26.0175 20.1509 26.1495V26.5896ZM21.4711 26.5896C21.4711 26.6996 21.3831 26.8097 21.2511 26.8097H20.811C20.679 26.8097 20.591 26.7216 20.591 26.5896V26.1495C20.591 26.0175 20.679 25.9295 20.811 25.9295H21.2511C21.3831 25.9295 21.4711 26.0175 21.4711 26.1495V26.5896ZM22.7914 26.5896C22.7914 26.6996 22.7033 26.8097 22.5713 26.8097H22.1312C21.9992 26.8097 21.9112 26.7216 21.9112 26.5896V26.1495C21.9112 26.0175 21.9992 25.9295 22.1312 25.9295H22.5713C22.7033 25.9295 22.7914 26.0175 22.7914 26.1495V26.5896ZM24.1116 26.5896C24.1116 26.6996 24.0236 26.8097 23.8915 26.8097H23.4515C23.3415 26.8097 23.2314 26.7216 23.2314 26.5896V26.1495C23.2314 26.0175 23.3194 25.9295 23.4515 25.9295H23.8915C24.0236 25.9295 24.1116 26.0175 24.1116 26.1495V26.5896ZM25.4318 26.5896C25.4318 26.6996 25.3438 26.8097 25.2118 26.8097H24.7717C24.6397 26.8097 24.5517 26.7216 24.5517 26.5896V26.1495C24.5517 26.0175 24.6397 25.9295 24.7717 25.9295H25.2118C25.3438 25.9295 25.4318 26.0175 25.4318 26.1495V26.5896ZM26.7521 26.5896C26.7521 26.6996 26.664 26.8097 26.532 26.8097H26.0919C25.9819 26.8097 25.8719 26.7216 25.8719 26.5896V26.1495C25.8719 26.0175 25.9599 25.9295 26.0919 25.9295H26.532C26.642 25.9295 26.7521 26.0175 26.7521 26.1495V26.5896ZM27.1921 27.9099C27.1921 28.0419 27.1041 28.1299 26.9721 28.1299H26.532C26.4 28.1299 26.312 28.0419 26.312 27.9099V27.4698C26.312 27.3598 26.4 27.2497 26.532 27.2497H26.9721C27.0821 27.2497 27.1921 27.3378 27.1921 27.4698V27.9099ZM25.8719 27.9099C25.8719 28.0419 25.7839 28.1299 25.6519 28.1299H25.2118C25.1018 28.1299 24.9917 28.0419 24.9917 27.9099V27.4698C24.9917 27.3598 25.0798 27.2497 25.2118 27.2497H25.6519C25.7839 27.2497 25.8719 27.3378 25.8719 27.4698V27.9099ZM24.5517 27.9099C24.5517 28.0419 24.4637 28.1299 24.3316 28.1299H23.8915C23.7595 28.1299 23.6715 28.0419 23.6715 27.9099V27.4698C23.6715 27.3598 23.7595 27.2497 23.8915 27.2497H24.3316C24.4416 27.2497 24.5517 27.3378 24.5517 27.4698V27.9099ZM23.2314 27.9099C23.2314 28.0419 23.1434 28.1299 23.0114 28.1299H22.5713C22.4393 28.1299 22.3513 28.0419 22.3513 27.9099V27.4698C22.3513 27.3598 22.4393 27.2497 22.5713 27.2497H23.0114C23.1434 27.2497 23.2314 27.3378 23.2314 27.4698V27.9099ZM21.9112 27.9099C21.9112 28.0419 21.8232 28.1299 21.6912 28.1299H21.2511C21.1411 28.1299 21.031 28.0419 21.031 27.9099V27.4698C21.031 27.3598 21.1191 27.2497 21.2511 27.2497H21.6912C21.8232 27.2497 21.9112 27.3378 21.9112 27.4698V27.9099ZM20.591 27.9099C20.591 28.0419 20.5029 28.1299 20.3709 28.1299H19.9308C19.7988 28.1299 19.7108 28.0419 19.7108 27.9099V27.4698C19.7108 27.3598 19.7988 27.2497 19.9308 27.2497H20.3709C20.5029 27.2497 20.591 27.3378 20.591 27.4698V27.9099ZM19.2707 27.9099C19.2707 28.0419 19.1827 28.1299 19.0507 28.1299H18.6106C18.4786 28.1299 18.3906 28.0419 18.3906 27.9099V27.4698C18.3906 27.3598 18.4786 27.2497 18.6106 27.2497H19.0507C19.1827 27.2497 19.2707 27.3378 19.2707 27.4698V27.9099ZM19.7108 29.2301C19.7108 29.3401 19.6228 29.4501 19.4908 29.4501H19.0507C18.9407 29.4501 18.8306 29.3621 18.8306 29.2301V28.79C18.8306 28.658 18.9187 28.57 19.0507 28.57H19.4908C19.6228 28.57 19.7108 28.658 19.7108 28.79V29.2301ZM19.2707 30.5503C19.2707 30.6604 19.1827 30.7704 19.0507 30.7704H18.6106C18.4786 30.7704 18.3906 30.6824 18.3906 30.5503V30.1103C18.3906 29.9782 18.4786 29.8902 18.6106 29.8902H19.0507C19.1827 29.8902 19.2707 29.9782 19.2707 30.1103V30.5503ZM20.591 30.5503C20.591 30.6604 20.5029 30.7704 20.3709 30.7704H19.9308C19.7988 30.7704 19.7108 30.6824 19.7108 30.5503V30.1103C19.7108 29.9782 19.7988 29.8902 19.9308 29.8902H20.3709C20.5029 29.8902 20.591 29.9782 20.591 30.1103V30.5503ZM21.031 29.2301C21.031 29.3401 20.943 29.4501 20.811 29.4501H20.3709C20.2389 29.4501 20.1509 29.3621 20.1509 29.2301V28.79C20.1509 28.658 20.2389 28.57 20.3709 28.57H20.811C20.943 28.57 21.031 28.658 21.031 28.79V29.2301ZM22.3513 29.2301C22.3513 29.3401 22.2633 29.4501 22.1312 29.4501H21.6912C21.5591 29.4501 21.4711 29.3621 21.4711 29.2301V28.79C21.4711 28.658 21.5591 28.57 21.6912 28.57H22.1312C22.2413 28.57 22.3513 28.658 22.3513 28.79V29.2301ZM23.6715 29.2301C23.6715 29.3401 23.5835 29.4501 23.4515 29.4501H23.0114C22.8794 29.4501 22.7914 29.3621 22.7914 29.2301V28.79C22.7914 28.658 22.8794 28.57 23.0114 28.57H23.4515C23.5835 28.57 23.6715 28.658 23.6715 28.79V29.2301ZM24.9917 29.2301C24.9917 29.3401 24.9037 29.4501 24.7717 29.4501H24.3316C24.1996 29.4501 24.1116 29.3621 24.1116 29.2301V28.79C24.1116 28.658 24.1996 28.57 24.3316 28.57H24.7717C24.9037 28.57 24.9917 28.658 24.9917 28.79V29.2301ZM26.312 29.2301C26.312 29.3401 26.224 29.4501 26.0919 29.4501H25.6519C25.5418 29.4501 25.4318 29.3621 25.4318 29.2301V28.79C25.4318 28.658 25.5198 28.57 25.6519 28.57H26.0919C26.202 28.57 26.312 28.658 26.312 28.79V29.2301ZM26.7521 30.5503C26.7521 30.6604 26.664 30.7704 26.532 30.7704H26.0919C25.9819 30.7704 25.8719 30.6824 25.8719 30.5503V30.1103C25.8719 29.9782 25.9599 29.8902 26.0919 29.8902H26.532C26.642 29.8902 26.7521 29.9782 26.7521 30.1103V30.5503ZM28.9525 26.5896C28.9525 26.6996 28.8644 26.8097 28.7544 26.8097H27.3902C27.2802 26.8097 27.1921 26.7216 27.1921 26.5896V26.1495C27.1921 26.0175 27.2802 25.9295 27.3902 25.9295H28.7544C28.8644 25.9295 28.9525 26.0175 28.9525 26.1495V26.5896ZM28.9525 30.5503C28.9525 30.6604 28.8644 30.7704 28.7544 30.7704H27.3902C27.2802 30.7704 27.1921 30.6824 27.1921 30.5503V30.1103C27.1921 29.9782 27.2802 29.8902 27.3902 29.8902H28.7544C28.8644 29.8902 28.9525 29.9782 28.9525 30.1103V30.5503ZM28.9525 29.2301C28.9525 29.3401 28.8644 29.4501 28.7764 29.4501H26.9281C26.8401 29.4501 26.7521 29.3621 26.7521 29.2301V28.79C26.7521 28.658 26.8401 28.57 26.9281 28.57H28.7764C28.8864 28.57 28.9525 28.658 28.9525 28.79V29.2301ZM18.3906 29.2301C18.3906 29.3401 18.3025 29.4501 18.1925 29.4501H16.8283C16.7183 29.4501 16.6302 29.3621 16.6302 29.2301V28.79C16.6302 28.658 16.7183 28.57 16.8283 28.57H18.1925C18.3025 28.57 18.3906 28.658 18.3906 28.79V29.2301ZM28.9525 27.9099C28.9525 28.0419 28.8644 28.1299 28.7544 28.1299H27.8303C27.7202 28.1299 27.6322 28.0419 27.6322 27.9099V27.4698C27.6322 27.3598 27.7202 27.2497 27.8303 27.2497H28.7544C28.8644 27.2497 28.9525 27.3378 28.9525 27.4698V27.9099ZM17.9505 27.9099C17.9505 28.0419 17.8625 28.1299 17.7524 28.1299H16.8283C16.7183 28.1299 16.6302 28.0419 16.6302 27.9099V27.4698C16.6302 27.3598 16.7183 27.2497 16.8283 27.2497H17.7524C17.8625 27.2497 17.9505 27.3378 17.9505 27.4698V27.9099ZM17.9505 30.5503C17.9505 30.6604 17.8625 30.7704 17.7524 30.7704H16.8283C16.7183 30.7704 16.6302 30.6604 16.6302 30.5503V30.1103C16.6302 30.0002 16.7183 29.8902 16.8283 29.8902H17.7524C17.8625 29.8902 17.9505 29.9782 17.9505 30.1103V30.5503ZM25.4318 30.5503C25.4318 30.6604 25.3438 30.7704 25.2558 30.7704H21.2071C21.097 30.7704 21.031 30.6824 21.031 30.5503V30.1103C21.031 30.0002 21.1191 29.8902 21.2071 29.8902H25.2338C25.3438 29.8902 25.4098 29.9782 25.4098 30.1103V30.5503H25.4318Z" fill="#F4F4F4"/>
<path d="M17.7084 25.4894H17.3123C17.0043 25.4894 17.0043 25.0493 17.3123 25.0493H17.7084C18.0385 25.0493 18.0385 25.4894 17.7084 25.4894ZM19.0286 25.4894H18.6106C18.3025 25.4894 18.3025 25.0493 18.6106 25.0493H19.0286C19.3587 25.0493 19.3587 25.4894 19.0286 25.4894ZM20.3489 25.4894H19.9308C19.6228 25.4894 19.6228 25.0493 19.9308 25.0493H20.3489C20.6789 25.0493 20.6789 25.4894 20.3489 25.4894ZM21.6691 25.4894H21.273C20.965 25.4894 20.965 25.0493 21.273 25.0493H21.6691C21.9992 25.0493 21.9992 25.4894 21.6691 25.4894ZM22.9894 25.4894H22.5933C22.2852 25.4894 22.2852 25.0493 22.5933 25.0493H22.9894C23.3194 25.0493 23.3194 25.4894 22.9894 25.4894ZM24.3096 25.4894H23.9135C23.6055 25.4894 23.6055 25.0493 23.9135 25.0493H24.3096C24.6397 25.0493 24.6397 25.4894 24.3096 25.4894ZM25.6298 25.4894H25.2338C24.9257 25.4894 24.9257 25.0493 25.2338 25.0493H25.6298C25.9599 25.0493 25.9599 25.4894 25.6298 25.4894ZM26.9501 25.4894H26.554C26.2459 25.4894 26.2459 25.0493 26.554 25.0493H26.9501C27.2801 25.0493 27.2801 25.4894 26.9501 25.4894ZM28.2703 25.4894H27.8742C27.5662 25.4894 27.5662 25.0493 27.8742 25.0493H28.2703C28.6004 25.0493 28.6004 25.4894 28.2703 25.4894Z" fill="#F4F4F4"/>
<path d="M6.84502 18.1855C5.67899 18.1855 4.63125 17.9827 3.7018 17.5771C2.78925 17.1547 2.07105 16.5801 1.54718 15.8534C1.02331 15.1099 0.752922 14.2565 0.736023 13.2932H3.19483C3.27933 14.1213 3.61731 14.8226 4.20877 15.3972C4.81714 15.9548 5.69589 16.2337 6.84502 16.2337C7.94346 16.2337 8.80531 15.9633 9.43057 15.4225C10.0727 14.8648 10.3938 14.1551 10.3938 13.2932C10.3938 12.6173 10.2079 12.0681 9.83615 11.6456C9.46437 11.2231 8.99965 10.902 8.44198 10.6823C7.88431 10.4627 7.1323 10.2261 6.18596 9.97258C5.01993 9.6684 4.08203 9.36422 3.37227 9.06003C2.67941 8.75585 2.0795 8.28268 1.57252 7.64052C1.08245 6.98145 0.837417 6.1027 0.837417 5.00427C0.837417 4.04102 1.08245 3.18762 1.57252 2.44407C2.0626 1.70051 2.74701 1.12594 3.62576 0.720364C4.5214 0.314788 5.5438 0.112 6.69293 0.112C8.34903 0.112 9.70096 0.526026 10.7487 1.35408C11.8133 2.18213 12.4132 3.28057 12.5484 4.64939H10.0136C9.92909 3.97343 9.57421 3.38196 8.94895 2.87499C8.32369 2.35112 7.49563 2.08919 6.46479 2.08919C5.50155 2.08919 4.71574 2.34267 4.10738 2.84964C3.49901 3.33971 3.19483 4.03257 3.19483 4.92822C3.19483 5.57038 3.37227 6.09425 3.72715 6.49983C4.09893 6.90541 4.54675 7.21804 5.07062 7.43773C5.61139 7.64051 6.3634 7.8771 7.32664 8.14749C8.49268 8.46857 9.43057 8.78965 10.1403 9.11073C10.8501 9.41491 11.4585 9.89654 11.9654 10.5556C12.4724 11.1978 12.7259 12.0765 12.7259 13.1918C12.7259 14.0537 12.4977 14.8648 12.0415 15.6253C11.5852 16.3858 10.9092 17.0026 10.0136 17.4757C9.11794 17.9489 8.06175 18.1855 6.84502 18.1855Z" fill="#F4F4F4"/>
<path d="M21.621 0.340136C23.5475 0.340136 25.2121 0.703465 26.6147 1.43012C28.0342 2.13988 29.1158 3.16227 29.8593 4.4973C30.6198 5.83232 31 7.40393 31 9.21213C31 11.0203 30.6198 12.5919 29.8593 13.927C29.1158 15.2451 28.0342 16.259 26.6147 16.9688C25.2121 17.6616 23.5475 18.0081 21.621 18.0081H16.1204V0.340136H21.621ZM21.621 16.1069C23.9024 16.1069 25.643 15.507 26.8428 14.3072C28.0427 13.0905 28.6426 11.3921 28.6426 9.21213C28.6426 7.01525 28.0342 5.3 26.8175 4.06637C25.6177 2.83274 23.8855 2.21593 21.621 2.21593H18.4271V16.1069H21.621Z" fill="#F4F4F4"/>
</svg>
