<svg width="235" height="78" viewBox="0 0 235 78" fill="none" xmlns="http://www.w3.org/2000/svg">
<path d="M160.917 65.5H160.5C160.5 59.4583 158.083 59.4583 155.5 59.4583C152.833 59.4583 150.083 59.4583 150.083 53H150.5C150.5 59.0417 152.917 59.0417 155.5 59.0417C158.167 59.0417 160.917 59.0417 160.917 65.5Z" fill="#F4F4F4"/>
<path d="M173 76.75C173 77.4583 172.458 78 171.833 78H149.167C148.542 78 148 77.4583 148 76.75V66.75C148 66.0417 148.542 65.5 149.167 65.5H171.833C172.5 65.5 173 66.0417 173 66.75V76.75V76.75Z" fill="#929292"/>
<path d="M150.5 69.25C150.5 69.4583 150.333 69.6667 150.083 69.6667H149.25C149 69.6667 148.833 69.5 148.833 69.25V68.4167C148.833 68.1667 149 68 149.25 68H150.083C150.333 68 150.5 68.1667 150.5 68.4167V69.25ZM153 69.25C153 69.4583 152.833 69.6667 152.583 69.6667H151.75C151.5 69.6667 151.333 69.5 151.333 69.25V68.4167C151.333 68.1667 151.5 68 151.75 68H152.583C152.833 68 153 68.1667 153 68.4167V69.25ZM155.5 69.25C155.5 69.4583 155.333 69.6667 155.083 69.6667H154.25C154 69.6667 153.833 69.5 153.833 69.25V68.4167C153.833 68.1667 154 68 154.25 68H155.083C155.333 68 155.5 68.1667 155.5 68.4167V69.25ZM158 69.25C158 69.4583 157.833 69.6667 157.583 69.6667H156.75C156.5 69.6667 156.333 69.5 156.333 69.25V68.4167C156.333 68.1667 156.5 68 156.75 68H157.583C157.833 68 158 68.1667 158 68.4167V69.25ZM160.5 69.25C160.5 69.4583 160.333 69.6667 160.083 69.6667H159.25C159 69.6667 158.833 69.5 158.833 69.25V68.4167C158.833 68.1667 159 68 159.25 68H160.083C160.333 68 160.5 68.1667 160.5 68.4167V69.25ZM163 69.25C163 69.4583 162.833 69.6667 162.583 69.6667H161.75C161.542 69.6667 161.333 69.5 161.333 69.25V68.4167C161.333 68.1667 161.5 68 161.75 68H162.583C162.833 68 163 68.1667 163 68.4167V69.25ZM165.5 69.25C165.5 69.4583 165.333 69.6667 165.083 69.6667H164.25C164 69.6667 163.833 69.5 163.833 69.25V68.4167C163.833 68.1667 164 68 164.25 68H165.083C165.333 68 165.5 68.1667 165.5 68.4167V69.25ZM168 69.25C168 69.4583 167.833 69.6667 167.583 69.6667H166.75C166.542 69.6667 166.333 69.5 166.333 69.25V68.4167C166.333 68.1667 166.5 68 166.75 68H167.583C167.792 68 168 68.1667 168 68.4167V69.25ZM168.833 71.75C168.833 72 168.667 72.1667 168.417 72.1667H167.583C167.333 72.1667 167.167 72 167.167 71.75V70.9167C167.167 70.7083 167.333 70.5 167.583 70.5H168.417C168.625 70.5 168.833 70.6667 168.833 70.9167V71.75ZM166.333 71.75C166.333 72 166.167 72.1667 165.917 72.1667H165.083C164.875 72.1667 164.667 72 164.667 71.75V70.9167C164.667 70.7083 164.833 70.5 165.083 70.5H165.917C166.167 70.5 166.333 70.6667 166.333 70.9167V71.75ZM163.833 71.75C163.833 72 163.667 72.1667 163.417 72.1667H162.583C162.333 72.1667 162.167 72 162.167 71.75V70.9167C162.167 70.7083 162.333 70.5 162.583 70.5H163.417C163.625 70.5 163.833 70.6667 163.833 70.9167V71.75ZM161.333 71.75C161.333 72 161.167 72.1667 160.917 72.1667H160.083C159.833 72.1667 159.667 72 159.667 71.75V70.9167C159.667 70.7083 159.833 70.5 160.083 70.5H160.917C161.167 70.5 161.333 70.6667 161.333 70.9167V71.75ZM158.833 71.75C158.833 72 158.667 72.1667 158.417 72.1667H157.583C157.375 72.1667 157.167 72 157.167 71.75V70.9167C157.167 70.7083 157.333 70.5 157.583 70.5H158.417C158.667 70.5 158.833 70.6667 158.833 70.9167V71.75ZM156.333 71.75C156.333 72 156.167 72.1667 155.917 72.1667H155.083C154.833 72.1667 154.667 72 154.667 71.75V70.9167C154.667 70.7083 154.833 70.5 155.083 70.5H155.917C156.167 70.5 156.333 70.6667 156.333 70.9167V71.75ZM153.833 71.75C153.833 72 153.667 72.1667 153.417 72.1667H152.583C152.333 72.1667 152.167 72 152.167 71.75V70.9167C152.167 70.7083 152.333 70.5 152.583 70.5H153.417C153.667 70.5 153.833 70.6667 153.833 70.9167V71.75ZM154.667 74.25C154.667 74.4583 154.5 74.6667 154.25 74.6667H153.417C153.208 74.6667 153 74.5 153 74.25V73.4167C153 73.1667 153.167 73 153.417 73H154.25C154.5 73 154.667 73.1667 154.667 73.4167V74.25ZM153.833 76.75C153.833 76.9583 153.667 77.1667 153.417 77.1667H152.583C152.333 77.1667 152.167 77 152.167 76.75V75.9167C152.167 75.6667 152.333 75.5 152.583 75.5H153.417C153.667 75.5 153.833 75.6667 153.833 75.9167V76.75ZM156.333 76.75C156.333 76.9583 156.167 77.1667 155.917 77.1667H155.083C154.833 77.1667 154.667 77 154.667 76.75V75.9167C154.667 75.6667 154.833 75.5 155.083 75.5H155.917C156.167 75.5 156.333 75.6667 156.333 75.9167V76.75ZM157.167 74.25C157.167 74.4583 157 74.6667 156.75 74.6667H155.917C155.667 74.6667 155.5 74.5 155.5 74.25V73.4167C155.5 73.1667 155.667 73 155.917 73H156.75C157 73 157.167 73.1667 157.167 73.4167V74.25ZM159.667 74.25C159.667 74.4583 159.5 74.6667 159.25 74.6667H158.417C158.167 74.6667 158 74.5 158 74.25V73.4167C158 73.1667 158.167 73 158.417 73H159.25C159.458 73 159.667 73.1667 159.667 73.4167V74.25ZM162.167 74.25C162.167 74.4583 162 74.6667 161.75 74.6667H160.917C160.667 74.6667 160.5 74.5 160.5 74.25V73.4167C160.5 73.1667 160.667 73 160.917 73H161.75C162 73 162.167 73.1667 162.167 73.4167V74.25ZM164.667 74.25C164.667 74.4583 164.5 74.6667 164.25 74.6667H163.417C163.167 74.6667 163 74.5 163 74.25V73.4167C163 73.1667 163.167 73 163.417 73H164.25C164.5 73 164.667 73.1667 164.667 73.4167V74.25ZM167.167 74.25C167.167 74.4583 167 74.6667 166.75 74.6667H165.917C165.708 74.6667 165.5 74.5 165.5 74.25V73.4167C165.5 73.1667 165.667 73 165.917 73H166.75C166.958 73 167.167 73.1667 167.167 73.4167V74.25ZM168 76.75C168 76.9583 167.833 77.1667 167.583 77.1667H166.75C166.542 77.1667 166.333 77 166.333 76.75V75.9167C166.333 75.6667 166.5 75.5 166.75 75.5H167.583C167.792 75.5 168 75.6667 168 75.9167V76.75ZM172.167 69.25C172.167 69.4583 172 69.6667 171.792 69.6667H169.208C169 69.6667 168.833 69.5 168.833 69.25V68.4167C168.833 68.1667 169 68 169.208 68H171.792C172 68 172.167 68.1667 172.167 68.4167V69.25ZM172.167 76.75C172.167 76.9583 172 77.1667 171.792 77.1667H169.208C169 77.1667 168.833 77 168.833 76.75V75.9167C168.833 75.6667 169 75.5 169.208 75.5H171.792C172 75.5 172.167 75.6667 172.167 75.9167V76.75ZM172.167 74.25C172.167 74.4583 172 74.6667 171.833 74.6667H168.333C168.167 74.6667 168 74.5 168 74.25V73.4167C168 73.1667 168.167 73 168.333 73H171.833C172.042 73 172.167 73.1667 172.167 73.4167V74.25ZM152.167 74.25C152.167 74.4583 152 74.6667 151.792 74.6667H149.208C149 74.6667 148.833 74.5 148.833 74.25V73.4167C148.833 73.1667 149 73 149.208 73H151.792C152 73 152.167 73.1667 152.167 73.4167V74.25V74.25ZM172.167 71.75C172.167 72 172 72.1667 171.792 72.1667H170.042C169.833 72.1667 169.667 72 169.667 71.75V70.9167C169.667 70.7083 169.833 70.5 170.042 70.5H171.792C172 70.5 172.167 70.6667 172.167 70.9167V71.75ZM151.333 71.75C151.333 72 151.167 72.1667 150.958 72.1667H149.208C149 72.1667 148.833 72 148.833 71.75V70.9167C148.833 70.7083 149 70.5 149.208 70.5H150.958C151.167 70.5 151.333 70.6667 151.333 70.9167V71.75V71.75ZM151.333 76.75C151.333 76.9583 151.167 77.1667 150.958 77.1667H149.208C149 77.1667 148.833 76.9583 148.833 76.75V75.9167C148.833 75.7083 149 75.5 149.208 75.5H150.958C151.167 75.5 151.333 75.6667 151.333 75.9167V76.75ZM165.5 76.75C165.5 76.9583 165.333 77.1667 165.167 77.1667H157.5C157.292 77.1667 157.167 77 157.167 76.75V75.9167C157.167 75.7083 157.333 75.5 157.5 75.5H165.125C165.333 75.5 165.458 75.6667 165.458 75.9167V76.75H165.5Z" fill="#F4F4F4"/>
<path d="M150.875 67.1667H150.125C149.542 67.1667 149.542 66.3333 150.125 66.3333H150.875C151.5 66.3333 151.5 67.1667 150.875 67.1667ZM153.375 67.1667H152.583C152 67.1667 152 66.3333 152.583 66.3333H153.375C154 66.3333 154 67.1667 153.375 67.1667ZM155.875 67.1667H155.083C154.5 67.1667 154.5 66.3333 155.083 66.3333H155.875C156.5 66.3333 156.5 67.1667 155.875 67.1667ZM158.375 67.1667H157.625C157.042 67.1667 157.042 66.3333 157.625 66.3333H158.375C159 66.3333 159 67.1667 158.375 67.1667ZM160.875 67.1667H160.125C159.542 67.1667 159.542 66.3333 160.125 66.3333H160.875C161.5 66.3333 161.5 67.1667 160.875 67.1667ZM163.375 67.1667H162.625C162.042 67.1667 162.042 66.3333 162.625 66.3333H163.375C164 66.3333 164 67.1667 163.375 67.1667ZM165.875 67.1667H165.125C164.542 67.1667 164.542 66.3333 165.125 66.3333H165.875C166.5 66.3333 166.5 67.1667 165.875 67.1667ZM168.375 67.1667H167.625C167.042 67.1667 167.042 66.3333 167.625 66.3333H168.375C169 66.3333 169 67.1667 168.375 67.1667ZM170.875 67.1667H170.125C169.542 67.1667 169.542 66.3333 170.125 66.3333H170.875C171.5 66.3333 171.5 67.1667 170.875 67.1667Z" fill="#F4F4F4"/>
<path d="M14.304 53.336C12.096 53.336 10.112 52.952 8.352 52.184C6.624 51.384 5.264 50.296 4.272 48.92C3.28 47.512 2.768 45.896 2.736 44.072H7.392C7.552 45.64 8.192 46.968 9.312 48.056C10.464 49.112 12.128 49.64 14.304 49.64C16.384 49.64 18.016 49.128 19.2 48.104C20.416 47.048 21.024 45.704 21.024 44.072C21.024 42.792 20.672 41.752 19.968 40.952C19.264 40.152 18.384 39.544 17.328 39.128C16.272 38.712 14.848 38.264 13.056 37.784C10.848 37.208 9.072 36.632 7.728 36.056C6.416 35.48 5.28 34.584 4.32 33.368C3.392 32.12 2.928 30.456 2.928 28.376C2.928 26.552 3.392 24.936 4.32 23.528C5.248 22.12 6.544 21.032 8.208 20.264C9.904 19.496 11.84 19.112 14.016 19.112C17.152 19.112 19.712 19.896 21.696 21.464C23.712 23.032 24.848 25.112 25.104 27.704H20.304C20.144 26.424 19.472 25.304 18.288 24.344C17.104 23.352 15.536 22.856 13.584 22.856C11.76 22.856 10.272 23.336 9.12 24.296C7.968 25.224 7.392 26.536 7.392 28.232C7.392 29.448 7.728 30.44 8.4 31.208C9.104 31.976 9.952 32.568 10.944 32.984C11.968 33.368 13.392 33.816 15.216 34.328C17.424 34.936 19.2 35.544 20.544 36.152C21.888 36.728 23.04 37.64 24 38.888C24.96 40.104 25.44 41.768 25.44 43.88C25.44 45.512 25.008 47.048 24.144 48.488C23.28 49.928 22 51.096 20.304 51.992C18.608 52.888 16.608 53.336 14.304 53.336ZM43.3399 53.432C40.8759 53.432 38.6359 52.872 36.6199 51.752C34.6359 50.632 33.0679 49.048 31.9159 47C30.7959 44.92 30.2359 42.52 30.2359 39.8C30.2359 37.112 30.8119 34.744 31.9639 32.696C33.1479 30.616 34.7479 29.032 36.7639 27.944C38.7799 26.824 41.0359 26.264 43.5319 26.264C46.0279 26.264 48.2839 26.824 50.2999 27.944C52.3159 29.032 53.8999 30.6 55.0519 32.648C56.2359 34.696 56.8279 37.08 56.8279 39.8C56.8279 42.52 56.2199 44.92 55.0039 47C53.8199 49.048 52.2039 50.632 50.1559 51.752C48.1079 52.872 45.8359 53.432 43.3399 53.432ZM43.3399 49.592C44.9079 49.592 46.3799 49.224 47.7559 48.488C49.1319 47.752 50.2359 46.648 51.0679 45.176C51.9319 43.704 52.3639 41.912 52.3639 39.8C52.3639 37.688 51.9479 35.896 51.1159 34.424C50.2839 32.952 49.1959 31.864 47.8519 31.16C46.5079 30.424 45.0519 30.056 43.4839 30.056C41.8839 30.056 40.4119 30.424 39.0679 31.16C37.7559 31.864 36.6999 32.952 35.8999 34.424C35.0999 35.896 34.6999 37.688 34.6999 39.8C34.6999 41.944 35.0839 43.752 35.8519 45.224C36.6519 46.696 37.7079 47.8 39.0199 48.536C40.3319 49.24 41.7719 49.592 43.3399 49.592ZM60.939 39.8C60.939 37.08 61.483 34.712 62.571 32.696C63.659 30.648 65.163 29.064 67.083 27.944C69.035 26.824 71.259 26.264 73.755 26.264C76.987 26.264 79.643 27.048 81.723 28.616C83.835 30.184 85.227 32.36 85.899 35.144H81.195C80.747 33.544 79.867 32.28 78.555 31.352C77.275 30.424 75.675 29.96 73.755 29.96C71.259 29.96 69.243 30.824 67.707 32.552C66.171 34.248 65.403 36.664 65.403 39.8C65.403 42.968 66.171 45.416 67.707 47.144C69.243 48.872 71.259 49.736 73.755 49.736C75.675 49.736 77.275 49.288 78.555 48.392C79.835 47.496 80.715 46.216 81.195 44.552H85.899C85.195 47.24 83.787 49.4 81.675 51.032C79.563 52.632 76.923 53.432 73.755 53.432C71.259 53.432 69.035 52.872 67.083 51.752C65.163 50.632 63.659 49.048 62.571 47C61.483 44.952 60.939 42.552 60.939 39.8ZM93.9833 22.424C93.1513 22.424 92.4473 22.136 91.8713 21.56C91.2953 20.984 91.0073 20.28 91.0073 19.448C91.0073 18.616 91.2953 17.912 91.8713 17.336C92.4473 16.76 93.1513 16.472 93.9833 16.472C94.7833 16.472 95.4553 16.76 95.9993 17.336C96.5753 17.912 96.8633 18.616 96.8633 19.448C96.8633 20.28 96.5753 20.984 95.9993 21.56C95.4553 22.136 94.7833 22.424 93.9833 22.424ZM96.0953 26.696V53H91.7273V26.696H96.0953ZM101.908 39.752C101.908 37.064 102.452 34.712 103.54 32.696C104.628 30.648 106.116 29.064 108.004 27.944C109.924 26.824 112.052 26.264 114.388 26.264C116.692 26.264 118.692 26.76 120.388 27.752C122.084 28.744 123.348 29.992 124.18 31.496V26.696H128.596V53H124.18V48.104C123.316 49.64 122.02 50.92 120.292 51.944C118.596 52.936 116.612 53.432 114.34 53.432C112.004 53.432 109.892 52.856 108.004 51.704C106.116 50.552 104.628 48.936 103.54 46.856C102.452 44.776 101.908 42.408 101.908 39.752ZM124.18 39.8C124.18 37.816 123.78 36.088 122.98 34.616C122.18 33.144 121.092 32.024 119.716 31.256C118.372 30.456 116.884 30.056 115.252 30.056C113.62 30.056 112.132 30.44 110.788 31.208C109.444 31.976 108.372 33.096 107.572 34.568C106.772 36.04 106.372 37.768 106.372 39.752C106.372 41.768 106.772 43.528 107.572 45.032C108.372 46.504 109.444 47.64 110.788 48.44C112.132 49.208 113.62 49.592 115.252 49.592C116.884 49.592 118.372 49.208 119.716 48.44C121.092 47.64 122.18 46.504 122.98 45.032C123.78 43.528 124.18 41.784 124.18 39.8ZM140.345 17.48V53H135.977V17.48H140.345ZM158.206 19.544C161.854 19.544 165.006 20.232 167.662 21.608C170.35 22.952 172.398 24.888 173.806 27.416C175.246 29.944 175.966 32.92 175.966 36.344C175.966 39.768 175.246 42.744 173.806 45.272C172.398 47.768 170.35 49.688 167.662 51.032C165.006 52.344 161.854 53 158.206 53H147.79V19.544H158.206ZM158.206 49.4C162.526 49.4 165.822 48.264 168.094 45.992C170.366 43.688 171.502 40.472 171.502 36.344C171.502 32.184 170.35 28.936 168.046 26.6C165.774 24.264 162.494 23.096 158.206 23.096H152.158V49.4H158.206ZM205.727 38.84C205.727 39.672 205.679 40.552 205.583 41.48H184.559C184.719 44.072 185.599 46.104 187.199 47.576C188.831 49.016 190.799 49.736 193.103 49.736C194.991 49.736 196.559 49.304 197.807 48.44C199.087 47.544 199.983 46.36 200.495 44.888H205.199C204.495 47.416 203.087 49.48 200.975 51.08C198.863 52.648 196.239 53.432 193.103 53.432C190.607 53.432 188.367 52.872 186.383 51.752C184.431 50.632 182.895 49.048 181.775 47C180.655 44.92 180.095 42.52 180.095 39.8C180.095 37.08 180.639 34.696 181.727 32.648C182.815 30.6 184.335 29.032 186.287 27.944C188.271 26.824 190.543 26.264 193.103 26.264C195.599 26.264 197.807 26.808 199.727 27.896C201.647 28.984 203.119 30.488 204.143 32.408C205.199 34.296 205.727 36.44 205.727 38.84ZM201.215 37.928C201.215 36.264 200.847 34.84 200.111 33.656C199.375 32.44 198.367 31.528 197.087 30.92C195.839 30.28 194.447 29.96 192.911 29.96C190.703 29.96 188.815 30.664 187.247 32.072C185.711 33.48 184.831 35.432 184.607 37.928H201.215ZM221.285 48.968L229.445 26.696H234.101L223.781 53H218.693L208.373 26.696H213.077L221.285 48.968Z" fill="#F4F4F4"/>
</svg>
