<svg width="12" height="13" viewBox="0 0 12 13" fill="none" xmlns="http://www.w3.org/2000/svg">
<path d="M11.9639 11.325L8.06847 7.42947C8.67296 6.64797 8.99996 5.69248 8.99996 4.68748C8.99996 3.48449 8.53046 2.35649 7.68147 1.50599C6.83247 0.655498 5.70148 0.1875 4.49998 0.1875C3.29849 0.1875 2.16749 0.656998 1.31849 1.50599C0.467998 2.35499 0 3.48449 0 4.68748C0 5.88898 0.469498 7.01997 1.31849 7.86897C2.16749 8.71946 3.29699 9.18746 4.49998 9.18746C5.50498 9.18746 6.45897 8.86046 7.24047 8.25746L11.136 12.1514C11.1474 12.1629 11.1609 12.1719 11.1759 12.1781C11.1908 12.1843 11.2068 12.1875 11.223 12.1875C11.2391 12.1875 11.2551 12.1843 11.27 12.1781C11.285 12.1719 11.2985 12.1629 11.31 12.1514L11.9639 11.499C11.9754 11.4875 11.9844 11.474 11.9906 11.459C11.9968 11.4441 12 11.4281 12 11.412C12 11.3958 11.9968 11.3798 11.9906 11.3649C11.9844 11.3499 11.9754 11.3364 11.9639 11.325ZM6.87597 7.06347C6.23997 7.69797 5.39698 8.04747 4.49998 8.04747C3.60298 8.04747 2.75999 7.69797 2.12399 7.06347C1.48949 6.42747 1.13999 5.58448 1.13999 4.68748C1.13999 3.79048 1.48949 2.94599 2.12399 2.31149C2.75999 1.67699 3.60298 1.32749 4.49998 1.32749C5.39698 1.32749 6.24147 1.67549 6.87597 2.31149C7.51047 2.94749 7.85997 3.79048 7.85997 4.68748C7.85997 5.58448 7.51047 6.42897 6.87597 7.06347Z" fill="white"/>
</svg>
