<svg width="15" height="14" viewBox="0 0 15 14" fill="none" xmlns="http://www.w3.org/2000/svg">
<path d="M0 1.83092C0 1.34533 0.1929 0.879626 0.536263 0.536263C0.879626 0.1929 1.34533 0 1.83092 0L12.8164 0C13.302 0 13.7677 0.1929 14.1111 0.536263C14.4544 0.879626 14.6473 1.34533 14.6473 1.83092V9.15458C14.6473 9.64017 14.4544 10.1059 14.1111 10.4492C13.7677 10.7926 13.302 10.9855 12.8164 10.9855H4.04083C3.79806 10.9855 3.56524 11.082 3.3936 11.2537L0.781801 13.8655C0.717838 13.9296 0.63629 13.9734 0.547477 13.9911C0.458664 14.0089 0.366578 13.9999 0.282876 13.9653C0.199173 13.9307 0.127617 13.872 0.0772621 13.7968C0.0269077 13.7215 1.92382e-05 13.6329 0 13.5424L0 1.83092ZM3.2041 2.74637C3.08271 2.74637 2.96628 2.7946 2.88044 2.88044C2.7946 2.96628 2.74637 3.08271 2.74637 3.2041C2.74637 3.3255 2.7946 3.44192 2.88044 3.52777C2.96628 3.61361 3.08271 3.66183 3.2041 3.66183H11.4432C11.5646 3.66183 11.681 3.61361 11.7669 3.52777C11.8527 3.44192 11.901 3.3255 11.901 3.2041C11.901 3.08271 11.8527 2.96628 11.7669 2.88044C11.681 2.7946 11.5646 2.74637 11.4432 2.74637H3.2041ZM3.2041 5.03502C3.08271 5.03502 2.96628 5.08324 2.88044 5.16908C2.7946 5.25492 2.74637 5.37135 2.74637 5.49275C2.74637 5.61414 2.7946 5.73057 2.88044 5.81641C2.96628 5.90225 3.08271 5.95048 3.2041 5.95048H11.4432C11.5646 5.95048 11.681 5.90225 11.7669 5.81641C11.8527 5.73057 11.901 5.61414 11.901 5.49275C11.901 5.37135 11.8527 5.25492 11.7669 5.16908C11.681 5.08324 11.5646 5.03502 11.4432 5.03502H3.2041ZM3.2041 7.32366C3.08271 7.32366 2.96628 7.37189 2.88044 7.45773C2.7946 7.54357 2.74637 7.65999 2.74637 7.78139C2.74637 7.90279 2.7946 8.01921 2.88044 8.10505C2.96628 8.1909 3.08271 8.23912 3.2041 8.23912H7.78139C7.90279 8.23912 8.01921 8.1909 8.10505 8.10505C8.1909 8.01921 8.23912 7.90279 8.23912 7.78139C8.23912 7.65999 8.1909 7.54357 8.10505 7.45773C8.01921 7.37189 7.90279 7.32366 7.78139 7.32366H3.2041Z" fill="white"/>
</svg>
