<svg width="20" height="18" viewBox="0 0 20 18" fill="none" xmlns="http://www.w3.org/2000/svg">
<path d="M18.75 0H1.25C0.918479 0 0.600537 0.131696 0.366116 0.366116C0.131696 0.600537 0 0.918479 0 1.25V16.25C0 16.5815 0.131696 16.8995 0.366116 17.1339C0.600537 17.3683 0.918479 17.5 1.25 17.5H18.75C19.0815 17.5 19.3995 17.3683 19.6339 17.1339C19.8683 16.8995 20 16.5815 20 16.25V1.25C20 0.918479 19.8683 0.600537 19.6339 0.366116C19.3995 0.131696 19.0815 0 18.75 0ZM4.325 2.5C4.69584 2.5 5.05835 2.60997 5.36669 2.81599C5.67504 3.02202 5.91536 3.31486 6.05727 3.65747C6.19919 4.00008 6.23632 4.37708 6.16397 4.74079C6.09163 5.10451 5.91305 5.4386 5.65083 5.70083C5.3886 5.96305 5.05451 6.14163 4.69079 6.21397C4.32708 6.28632 3.95008 6.24919 3.60747 6.10727C3.26486 5.96536 2.97202 5.72504 2.76599 5.41669C2.55997 5.10835 2.45 4.74584 2.45 4.375C2.45 3.87772 2.64754 3.40081 2.99917 3.04917C3.35081 2.69754 3.82772 2.5 4.325 2.5ZM2.5 14.375V11.8125L6.25 8.0125C6.3671 7.89609 6.52551 7.83075 6.69063 7.83075C6.85574 7.83075 7.01415 7.89609 7.13125 8.0125L8.75 9.59375L3.95 14.375H2.5ZM17.5 14.375H5.71875L9.6125 10.4813L12.9875 7.10625C13.1046 6.98984 13.263 6.9245 13.4281 6.9245C13.5932 6.9245 13.7516 6.98984 13.8688 7.10625L17.5 10.7375V14.375Z" fill="#F4F4F4"/>
</svg>
