<svg width="20" height="18" viewBox="0 0 20 18" fill="none" xmlns="http://www.w3.org/2000/svg">
<path d="M9.967 7.193L5 12H8V18H12V12H15L9.967 7.193ZM18 0H2C0.9 0 0 0.9 0 2V14C0 15.1 0.9 16 2 16H6V14H2V5H18V14H14V16H18C19.1 16 20 15.1 20 14V2C20 0.9 19.1 0 18 0ZM2.5 3.25C2.40151 3.25 2.30398 3.2306 2.21299 3.19291C2.12199 3.15522 2.03931 3.09997 1.96967 3.03033C1.90003 2.96069 1.84478 2.87801 1.80709 2.78701C1.7694 2.69602 1.75 2.59849 1.75 2.5C1.75 2.40151 1.7694 2.30398 1.80709 2.21299C1.84478 2.12199 1.90003 2.03931 1.96967 1.96967C2.03931 1.90003 2.12199 1.84478 2.21299 1.80709C2.30398 1.7694 2.40151 1.75 2.5 1.75C2.69891 1.75 2.88968 1.82902 3.03033 1.96967C3.17098 2.11032 3.25 2.30109 3.25 2.5C3.25 2.69891 3.17098 2.88968 3.03033 3.03033C2.88968 3.17098 2.69891 3.25 2.5 3.25ZM4.5 3.25C4.40151 3.25 4.30398 3.2306 4.21299 3.19291C4.12199 3.15522 4.03931 3.09997 3.96967 3.03033C3.90003 2.96069 3.84478 2.87801 3.80709 2.78701C3.7694 2.69602 3.75 2.59849 3.75 2.5C3.75 2.40151 3.7694 2.30398 3.80709 2.21299C3.84478 2.12199 3.90003 2.03931 3.96967 1.96967C4.03931 1.90003 4.12199 1.84478 4.21299 1.80709C4.30398 1.7694 4.40151 1.75 4.5 1.75C4.69891 1.75 4.88968 1.82902 5.03033 1.96967C5.17098 2.11032 5.25 2.30109 5.25 2.5C5.25 2.69891 5.17098 2.88968 5.03033 3.03033C4.88968 3.17098 4.69891 3.25 4.5 3.25ZM18 3H6V2H18.019L18 3Z" fill="#F4F4F4"/>
</svg>
