<svg width="11" height="10" viewBox="0 0 11 10" fill="none" xmlns="http://www.w3.org/2000/svg">
<path d="M9.16667 6.4388V8.125C9.16667 8.64149 8.98329 9.08312 8.61654 9.44987C8.24978 9.81662 7.80816 10 7.29167 10H1.875C1.35851 10 0.916884 9.81662 0.55013 9.44987C0.183377 9.08312 0 8.64149 0 8.125V2.70833C0 2.19184 0.183377 1.75022 0.55013 1.38346C0.916884 1.01671 1.35851 0.833333 1.875 0.833333H3.53516C3.59158 0.833333 3.64041 0.85395 3.68164 0.895182C3.72287 0.936415 3.74349 0.985243 3.74349 1.04167C3.74349 1.15885 3.68707 1.2283 3.57422 1.25C3.24002 1.36285 2.95139 1.49306 2.70833 1.64062C2.66493 1.65799 2.63021 1.66667 2.60417 1.66667H1.875C1.58854 1.66667 1.34332 1.76866 1.13932 1.97266C0.93533 2.17665 0.833333 2.42188 0.833333 2.70833V8.125C0.833333 8.41146 0.93533 8.65668 1.13932 8.86068C1.34332 9.06467 1.58854 9.16667 1.875 9.16667H7.29167C7.57812 9.16667 7.82335 9.06467 8.02734 8.86068C8.23134 8.65668 8.33333 8.41146 8.33333 8.125V6.73177C8.33333 6.64931 8.3724 6.58637 8.45052 6.54297C8.57205 6.48655 8.68924 6.40625 8.80208 6.30208C8.87153 6.23264 8.94748 6.21528 9.02995 6.25C9.12109 6.28906 9.16667 6.352 9.16667 6.4388ZM10.7096 3.20964L8.20963 5.70964C8.13151 5.7921 8.03385 5.83333 7.91667 5.83333C7.86458 5.83333 7.81033 5.82248 7.75391 5.80078C7.58464 5.727 7.5 5.59896 7.5 5.41667V4.16667H6.45833C5.05642 4.16667 4.1059 4.45095 3.60677 5.01953C3.09028 5.61415 2.92969 6.64062 3.125 8.09896C3.13802 8.19878 3.09462 8.27257 2.99479 8.32031C2.96007 8.32899 2.93403 8.33333 2.91667 8.33333C2.84722 8.33333 2.7908 8.30512 2.7474 8.2487C2.70399 8.18793 2.65842 8.12066 2.61068 8.04688C2.56293 7.97309 2.47721 7.82444 2.35352 7.60091C2.22982 7.37739 2.1224 7.16146 2.03125 6.95312C1.9401 6.74479 1.85655 6.4974 1.7806 6.21094C1.70464 5.92448 1.66667 5.65972 1.66667 5.41667C1.66667 5.20399 1.67426 5.00651 1.68945 4.82422C1.70464 4.64193 1.73503 4.44661 1.7806 4.23828C1.82617 4.02995 1.88694 3.83898 1.96289 3.66536C2.03885 3.49175 2.14084 3.31489 2.26888 3.13477C2.39692 2.95464 2.54557 2.79405 2.71484 2.65299C2.88411 2.51194 3.08919 2.37847 3.33008 2.2526C3.57096 2.12674 3.84115 2.02148 4.14062 1.93685C4.4401 1.85221 4.78624 1.78602 5.17904 1.73828C5.57183 1.69054 5.99826 1.66667 6.45833 1.66667H7.5V0.416667C7.5 0.234375 7.58464 0.106337 7.75391 0.0325521C7.81033 0.0108507 7.86458 0 7.91667 0C8.02951 0 8.12717 0.0412326 8.20963 0.123698L10.7096 2.6237C10.7921 2.70616 10.8333 2.80382 10.8333 2.91667C10.8333 3.02951 10.7921 3.12717 10.7096 3.20964Z" fill="#F4F4F4"/>
</svg>
