<svg width="20" height="19" viewBox="0 0 20 19" fill="none" xmlns="http://www.w3.org/2000/svg">
<path d="M18.825 5.11108H1.175C0.863371 5.11108 0.564505 5.23488 0.344149 5.45523C0.123794 5.67559 0 5.97445 0 6.28608V17.6861C0 17.9977 0.123794 18.2966 0.344149 18.5169C0.564505 18.7373 0.863371 18.8611 1.175 18.8611H18.825C19.1366 18.8611 19.4355 18.7373 19.6558 18.5169C19.8762 18.2966 20 17.9977 20 17.6861V6.28608C20 5.97445 19.8762 5.67559 19.6558 5.45523C19.4355 5.23488 19.1366 5.11108 18.825 5.11108ZM13.8625 12.5048L7.75625 15.2298C7.66117 15.2726 7.55691 15.2909 7.45296 15.283C7.34901 15.2752 7.24867 15.2414 7.16108 15.1849C7.0735 15.1284 7.00144 15.0508 6.95147 14.9594C6.90151 14.8679 6.87522 14.7653 6.875 14.6611V9.21108C6.87522 9.10684 6.90151 9.0043 6.95147 8.91281C7.00144 8.82132 7.0735 8.74378 7.16108 8.68726C7.24867 8.63073 7.34901 8.59701 7.45296 8.58916C7.55691 8.58131 7.66117 8.59959 7.75625 8.64233L13.8625 11.3611C13.9734 11.41 14.0677 11.4901 14.1339 11.5916C14.2001 11.6932 14.2353 11.8118 14.2353 11.933C14.2353 12.0542 14.2001 12.1728 14.1339 12.2743C14.0677 12.3758 13.9734 12.4559 13.8625 12.5048Z" fill="#F4F4F4"/>
<path d="M17.5875 0.736084C17.5875 0.570324 17.5216 0.411352 17.4044 0.294142C17.2872 0.176932 17.1282 0.111084 16.9625 0.111084H3.21246C3.0467 0.111084 2.88773 0.176932 2.77052 0.294142C2.65331 0.411352 2.58746 0.570324 2.58746 0.736084V1.36108H17.5875V0.736084Z" fill="#F4F4F4"/>
<path d="M18.825 3.23608C18.825 3.07032 18.7592 2.91135 18.642 2.79414C18.5247 2.67693 18.3658 2.61108 18.2 2.61108H1.95001C1.78425 2.61108 1.62528 2.67693 1.50807 2.79414C1.39086 2.91135 1.32501 3.07032 1.32501 3.23608V3.86108H18.825V3.23608Z" fill="#F4F4F4"/>
</svg>
